<svg width="20" height="20" viewBox="0 0 20 20" fill="none" xmlns="http://www.w3.org/2000/svg">
<path d="M17.8282 11.8654H2.16846C1.98081 11.8654 1.80085 11.7909 1.66816 11.6582C1.53548 11.5255 1.46094 11.3455 1.46094 11.1579C1.46094 10.9702 1.53548 10.7903 1.66816 10.6576C1.80085 10.5249 1.98081 10.4504 2.16846 10.4504H17.8282C18.0158 10.4504 18.1958 10.5249 18.3285 10.6576C18.4612 10.7903 18.5357 10.9702 18.5357 11.1579C18.5357 11.3455 18.4612 11.5255 18.3285 11.6582C18.1958 11.7909 18.0158 11.8654 17.8282 11.8654ZM18.5357 17.5822C18.5357 17.3945 18.4612 17.2145 18.3285 17.0819C18.1958 16.9492 18.0158 16.8746 17.8282 16.8746H2.16846C1.98081 16.8746 1.80085 16.9492 1.66816 17.0819C1.53548 17.2145 1.46094 17.3945 1.46094 17.5822C1.46094 17.7698 1.53548 17.9498 1.66816 18.0824C1.80085 18.2151 1.98081 18.2897 2.16846 18.2897H17.8282C18.0151 18.2872 18.1936 18.2119 18.3258 18.0797C18.4579 17.9476 18.5333 17.769 18.5357 17.5822ZM18.4791 4.46006C18.4433 4.37586 18.3921 4.29908 18.3282 4.23365L15.9509 1.85639C15.8168 1.73142 15.6394 1.66338 15.4561 1.66661C15.2728 1.66985 15.0979 1.7441 14.9683 1.87373C14.8386 2.00336 14.7644 2.17825 14.7612 2.36154C14.7579 2.54484 14.826 2.72223 14.9509 2.85635L16.1207 4.02611H2.16846C1.98081 4.02611 1.80085 4.10066 1.66816 4.23334C1.53548 4.36603 1.46094 4.54599 1.46094 4.73363C1.46094 4.92128 1.53548 5.10124 1.66816 5.23392C1.80085 5.36661 1.98081 5.44115 2.16846 5.44115H16.1207L14.9509 6.61091C14.8184 6.74357 14.744 6.9234 14.744 7.11089C14.744 7.29838 14.8184 7.47821 14.9509 7.61087C15.0159 7.67744 15.0938 7.73016 15.1797 7.76583C15.2656 7.8015 15.3579 7.81938 15.4509 7.81841C15.5439 7.81885 15.636 7.80072 15.7218 7.76508C15.8077 7.72944 15.8856 7.67701 15.9509 7.61087L18.3282 5.23361C18.3885 5.17947 18.4395 5.11572 18.4791 5.04494C18.522 4.95342 18.5443 4.85358 18.5443 4.7525C18.5443 4.65142 18.522 4.55157 18.4791 4.46006Z" fill="#BCBFC5"/>
</svg>
