<svg width="20" height="20" viewBox="0 0 20 20" fill="none" xmlns="http://www.w3.org/2000/svg">
<path opacity="0.1" fill-rule="evenodd" clip-rule="evenodd" d="M7.77148 10.0005C11.2382 10.0005 13.9893 11.9005 13.9893 14.3335C13.9891 16.7664 11.2381 18.6665 7.77148 18.6665C4.30496 18.6665 1.58606 16.7664 1.58594 14.3335C1.58594 11.9005 4.30488 10.0005 7.77148 10.0005ZM13.8506 10.4165C16.4759 10.4165 18.5352 11.8774 18.5352 13.7446C18.5349 15.3245 17.0343 16.6574 14.8799 17.0005H14.7842C14.6422 17.0004 14.5046 16.949 14.3965 16.8569C14.1854 16.6769 14.2395 16.3593 14.2998 16.0884C14.6618 14.4619 14.3633 12.7506 13.459 11.3374L13.252 11.0151C13.252 10.8565 13.3156 10.7045 13.4277 10.5923C13.5399 10.4801 13.6919 10.4166 13.8506 10.4165ZM13.5967 2.93408C14.4639 2.91495 15.303 3.24164 15.9297 3.84131C16.5563 4.44087 16.9192 5.26435 16.9385 6.13135C16.9576 6.99854 16.6319 7.83861 16.0322 8.46533C15.4326 9.09198 14.6083 9.45495 13.7412 9.47412L13.6445 9.46533C13.4927 9.47779 13.3403 9.47778 13.1885 9.46533C13.11 9.45452 13.0341 9.42832 12.9658 9.38818C12.8976 9.34808 12.8377 9.29516 12.79 9.23193C12.7424 9.16872 12.7072 9.09666 12.6875 9.02002C12.6678 8.94334 12.6635 8.86302 12.6748 8.78467L12.7217 8.64893C13.2413 7.15305 13.3678 5.5514 13.0908 3.99756C13.0358 3.68874 12.9501 3.33167 13.1719 3.10986C13.2846 2.9973 13.4374 2.93411 13.5967 2.93408ZM7.71094 1.3335C8.23064 1.33353 8.74543 1.4354 9.22559 1.63428C9.70583 1.8332 10.1422 2.12511 10.5098 2.49268C10.8773 2.86024 11.1692 3.29661 11.3682 3.77686C11.567 4.25701 11.6689 4.7718 11.6689 5.2915C11.6689 6.07434 11.4368 6.83981 11.002 7.49072C10.567 8.14163 9.94883 8.64913 9.22559 8.94873C8.50232 9.24832 7.70629 9.32703 6.93848 9.17432C6.17064 9.02158 5.46569 8.64391 4.91211 8.09033C4.35853 7.53675 3.98086 6.83181 3.82812 6.06396C3.67541 5.29614 3.75412 4.50013 4.05371 3.77686C4.35331 3.05361 4.86081 2.43541 5.51172 2.00049C6.16263 1.5656 6.92811 1.3335 7.71094 1.3335Z" fill="#BCBFC5"/>
<path fill-rule="evenodd" clip-rule="evenodd" d="M7.73926 9.94336C11.2617 9.94347 14.0566 11.8745 14.0566 14.3467C14.0566 16.8189 11.2617 18.7499 7.73926 18.75C4.21664 18.75 1.45312 16.819 1.45312 14.3467C1.45315 11.8744 4.21665 9.94336 7.73926 9.94336ZM7.73926 11.1553C4.9842 11.1553 2.66507 12.6177 2.66504 14.3467C2.66504 16.0757 4.98418 17.5381 7.73926 17.5381C10.4861 17.538 12.8047 16.0756 12.8047 14.3467C12.8047 12.6178 10.4942 11.1554 7.73926 11.1553ZM13.8223 10.3877C16.4803 10.3877 18.5652 11.8664 18.5654 13.7568C18.5654 15.3565 17.0466 16.7062 14.8652 17.0537H14.7676C14.6239 17.0535 14.4844 17.0023 14.375 16.9092C14.2657 16.816 14.193 16.6867 14.1699 16.5449C14.1465 16.3868 14.1859 16.2254 14.2793 16.0957C14.3728 15.966 14.5134 15.8774 14.6709 15.8496C16.2302 15.6072 17.3535 14.7264 17.3535 13.7568C17.3533 12.5854 15.7369 11.5996 13.8223 11.5996C13.6619 11.5995 13.508 11.5362 13.3945 11.4229C13.2809 11.3093 13.2169 11.1548 13.2168 10.9941C13.2168 10.8334 13.2809 10.6791 13.3945 10.5654C13.508 10.452 13.6618 10.3878 13.8223 10.3877ZM13.6123 2.90625C14.4865 2.88697 15.333 3.21585 15.9648 3.82031C16.5966 4.4248 16.9621 5.25573 16.9814 6.12988C17.0007 7.00414 16.6719 7.85059 16.0674 8.48242C15.4628 9.11413 14.632 9.47974 13.7578 9.49902L13.6611 9.49121C13.5079 9.5038 13.3534 9.5038 13.2002 9.49121C13.1212 9.48027 13.0453 9.45348 12.9766 9.41309C12.9077 9.37264 12.8469 9.31964 12.7988 9.25586C12.7508 9.19203 12.7161 9.11841 12.6963 9.04102C12.6766 8.96384 12.6723 8.88354 12.6836 8.80469C12.7095 8.64679 12.7951 8.50451 12.9229 8.4082C13.0507 8.31194 13.2112 8.26843 13.3701 8.28711C13.4831 8.29543 13.597 8.29543 13.71 8.28711C13.9836 8.2807 14.2535 8.22095 14.5039 8.11035C14.7542 7.99976 14.98 7.8405 15.1689 7.64258C15.3579 7.44458 15.5066 7.2113 15.6055 6.95605C15.7043 6.70072 15.7525 6.42804 15.7461 6.1543C15.7397 5.88059 15.679 5.61079 15.5684 5.36035C15.4577 5.10991 15.2986 4.88338 15.1006 4.69434C14.9026 4.50543 14.6692 4.35761 14.4141 4.25879C14.1587 4.15991 13.886 4.1118 13.6123 4.11816C13.4517 4.11806 13.2981 4.05398 13.1846 3.94043C13.071 3.82686 13.0069 3.67328 13.0068 3.5127C13.0068 3.35199 13.0709 3.19762 13.1846 3.08398C13.2981 2.97054 13.4518 2.90635 13.6123 2.90625ZM7.73926 1.25C8.26966 1.25004 8.79513 1.35464 9.28516 1.55762C9.77517 1.76063 10.2207 2.05854 10.5957 2.43359C10.9707 2.80865 11.2677 3.25416 11.4707 3.74414C11.6737 4.23422 11.7783 4.75959 11.7783 5.29004C11.7783 6.0889 11.5415 6.86995 11.0977 7.53418C10.6539 8.1983 10.0231 8.71574 9.28516 9.02148C8.54711 9.3272 7.73469 9.40773 6.95117 9.25195C6.16769 9.09611 5.44773 8.71127 4.88281 8.14648C4.31794 7.58162 3.93327 6.8616 3.77734 6.07812C3.62149 5.2946 3.70118 4.48223 4.00684 3.74414C4.31255 3.00608 4.82994 2.37454 5.49414 1.93066C6.15847 1.48678 6.94028 1.25 7.73926 1.25ZM8.87207 2.57227C8.34154 2.35165 7.75712 2.2924 7.19336 2.40332C6.62966 2.51427 6.11147 2.7902 5.7041 3.19531C5.29686 3.60036 5.01838 4.11676 4.9043 4.67969C4.79025 5.24283 4.84581 5.82763 5.06348 6.35938C5.28115 6.89107 5.65178 7.34646 6.12793 7.66797C6.60404 7.98936 7.16483 8.16282 7.73926 8.16602C8.51205 8.16595 9.2538 7.86036 9.80176 7.31543C10.3497 6.77052 10.6597 6.03054 10.6641 5.25781C10.6641 4.68338 10.4935 4.12143 10.1748 3.64355C9.85598 3.1657 9.40246 2.79289 8.87207 2.57227Z" fill="#BCBFC5"/>
</svg>
