<svg width="40" height="40" viewBox="0 0 40 40" fill="none" xmlns="http://www.w3.org/2000/svg">
<rect width="40" height="40" rx="20" fill="white"/>
<path d="M25.0999 17.6162C24.2415 17.6162 23.5249 18.1245 23.1832 18.8579L19.5832 26.5079C19.4999 26.6912 19.3249 26.9829 19.1832 26.9829C19.0415 26.9829 18.8749 26.6912 18.7832 26.5079L15.1665 18.8579C14.8165 18.1245 14.0999 17.6162 13.2499 17.6162H11.1582L16.8749 28.6829C17.4415 29.7662 18.5999 29.7495 19.1915 29.7495C20.0082 29.7495 20.9749 29.7079 21.4832 28.6829L27.1999 17.6162H25.0999Z" fill="#EA0029"/>
<path d="M10.2001 27.2167C7.08346 27.2167 4.45013 24.6083 4.45013 21.5167C4.45013 18.375 6.98346 15.825 10.1001 15.8167C11.0751 15.8167 12.1585 16.1333 12.1585 16.1333C12.1585 16.1333 14.2168 10.5083 22.1085 10.5083C23.5585 10.5083 24.9335 10.7917 26.2001 11.3083C24.3585 10.075 22.1001 9.375 19.7251 9.375C16.3585 9.375 13.1418 10.8167 11.0585 13.2417C10.7168 13.2 10.4001 13.175 10.1085 13.175C5.55013 13.175 1.8418 16.9 1.8418 21.4833C1.8418 25.9917 5.20846 29.6667 9.92513 29.7667H16.1251L15.6501 28.6917C15.2501 27.7917 14.3585 27.2167 13.3835 27.2167C12.0168 27.2167 10.2835 27.2167 10.2001 27.2167Z" fill="#EA0029"/>
<path d="M31.6167 15.9746C31.1833 15.9329 30.7417 15.9329 30.3083 15.9746C29.5 14.4246 28.3083 13.2079 26.7583 12.3829C25.5583 11.7413 24.1917 11.3496 22.7417 11.3496C19.775 11.3496 17.0833 12.5496 15.125 14.4829C16.5917 13.4329 18.425 12.8496 20.3583 12.8496C23.9333 12.8496 27.1333 14.8829 28.3083 17.9163L28.725 18.9913C30.2417 18.6163 31.6583 18.3413 33.125 19.0996C34.6333 19.8829 35.675 21.4663 35.675 23.2913C35.675 24.6663 35.0667 25.9079 34.0667 26.8329C33.4083 27.4413 32.6333 27.7413 31.8083 27.8829C30.875 28.0496 27.0333 28.0163 24.7417 27.9996C23.7917 27.9913 22.925 28.5246 22.5083 29.3746L21.875 30.6329C22.35 30.6329 30.9 30.6329 30.975 30.6329C31.575 30.6329 32.1583 30.5579 32.7167 30.4163C35.9167 29.6246 38.2917 26.7163 38.2917 23.2746C38.3 19.4496 35.3583 16.2996 31.6167 15.9746Z" fill="#EA0029"/>
</svg>
